<svg xmlns="http://www.w3.org/2000/svg" width="960" height="598" font-family="sans-serif" font-size="13">
<rect width="960" height="598" fill="#0e1726"/>
<text x="60" y="20" fill="#cfe0f5" font-size="15">Same item, same 14 days — quiet vs. heavy trading (sell flood d3–5, buy spree d9–10)</text>
<rect x="60" y="34" width="750" height="150" fill="#0b1320" stroke="#1a2740"/>
<line x1="60" y1="184" x2="810" y2="184" stroke="#1a2740"/>
<text x="53" y="188" fill="#6f88ad" text-anchor="end">0.0×</text>
<line x1="60" y1="146.5" x2="810" y2="146.5" stroke="#1a2740"/>
<text x="53" y="150.5" fill="#6f88ad" text-anchor="end">1.0×</text>
<line x1="60" y1="109" x2="810" y2="109" stroke="#1a2740"/>
<text x="53" y="113" fill="#6f88ad" text-anchor="end">2.0×</text>
<line x1="60" y1="71.5" x2="810" y2="71.5" stroke="#1a2740"/>
<text x="53" y="75.5" fill="#6f88ad" text-anchor="end">3.0×</text>
<line x1="60" y1="34" x2="810" y2="34" stroke="#1a2740"/>
<text x="53" y="38" fill="#6f88ad" text-anchor="end">4.0×</text>
<line x1="60" y1="146.5" x2="810" y2="146.5" stroke="#3a5070" stroke-dasharray="4 3"/>
<rect x="220.7142857142857" y="34" width="107.1428571428572" height="150" fill="#ff5d6c" opacity="0.06"/>
<rect x="542.1428571428571" y="34" width="53.57142857142867" height="150" fill="#4fa3ff" opacity="0.06"/>
<polyline points="60.0,146.5 62.2,146.5 64.5,146.9 66.7,147.0 68.9,147.0 71.2,146.6 73.4,146.6 75.6,146.3 77.9,146.5 80.1,146.5 82.3,146.7 84.6,146.3 86.8,146.6 89.0,146.3 91.3,146.3 93.5,146.2 95.7,146.6 97.9,146.3 100.2,146.3 102.4,146.0 104.6,146.3 106.9,146.6 109.1,146.8 111.3,147.1 113.6,146.8 115.8,147.2 118.0,147.2 120.3,147.2 122.5,146.8 124.7,146.5 127.0,146.2 129.2,146.7 131.4,146.4 133.7,146.0 135.9,145.8 138.1,145.5 140.4,145.3 142.6,144.9 144.8,144.6 147.1,144.8 149.3,145.2 151.5,144.8 153.8,145.1 156.0,144.8 158.2,145.0 160.4,144.8 162.7,145.0 164.9,144.8 167.1,144.6 169.4,144.7 171.6,144.8 173.8,145.3 176.1,145.2 178.3,145.2 180.5,145.7 182.8,145.4 185.0,145.7 187.2,145.7 189.5,145.4 191.7,145.4 193.9,145.5 196.2,145.1 198.4,144.9 200.6,144.9 202.9,144.6 205.1,144.6 207.3,144.6 209.6,144.3 211.8,144.6 214.0,144.7 216.3,145.1 218.5,145.3 220.7,145.2 222.9,145.0 225.2,145.4 227.4,145.4 229.6,145.9 231.9,145.4 234.1,145.8 236.3,145.6 238.6,145.9 240.8,145.5 243.0,145.1 245.3,145.4 247.5,145.7 249.7,145.4 252.0,145.4 254.2,145.2 256.4,145.1 258.7,144.7 260.9,144.5 263.1,144.4 265.4,144.2 267.6,144.5 269.8,144.3 272.1,144.3 274.3,144.6 276.5,144.6 278.8,144.6 281.0,144.6 283.2,144.3 285.4,144.0 287.7,143.7 289.9,144.0 292.1,144.3 294.4,144.3 296.6,144.6 298.8,144.4 301.1,144.7 303.3,144.8 305.5,144.6 307.8,144.7 310.0,144.6 312.2,144.6 314.5,144.1 316.7,144.4 318.9,144.4 321.2,144.4 323.4,144.1 325.6,143.6 327.9,144.0 330.1,144.0 332.3,144.2 334.6,144.3 336.8,144.0 339.0,144.3 341.3,144.6 343.5,144.5 345.7,144.8 347.9,145.0 350.2,145.0 352.4,145.0 354.6,145.0 356.9,145.4 359.1,145.7 361.3,145.7 363.6,145.3 365.8,145.7 368.0,145.7 370.3,145.9 372.5,145.9 374.7,145.8 377.0,145.5 379.2,145.2 381.4,144.8 383.7,144.8 385.9,145.1 388.1,145.4 390.4,145.7 392.6,145.7 394.8,146.0 397.1,145.6 399.3,145.8 401.5,145.4 403.8,145.7 406.0,145.4 408.2,145.8 410.4,146.1 412.7,146.4 414.9,146.4 417.1,146.2 419.4,146.1 421.6,146.4 423.8,146.4 426.1,146.4 428.3,146.1 430.5,146.4 432.8,146.4 435.0,146.7 437.2,146.7 439.5,146.5 441.7,146.7 443.9,146.7 446.2,146.3 448.4,146.5 450.6,146.8 452.9,147.2 455.1,146.8 457.3,147.0 459.6,146.9 461.8,147.3 464.0,147.4 466.3,147.6 468.5,147.4 470.7,147.7 472.9,147.8 475.2,148.1 477.4,148.4 479.6,148.6 481.9,148.3 484.1,148.5 486.3,148.5 488.6,148.1 490.8,147.7 493.0,148.1 495.3,148.3 497.5,148.0 499.7,148.3 502.0,148.2 504.2,148.5 506.4,148.8 508.7,148.4 510.9,148.6 513.1,148.6 515.4,148.4 517.6,148.5 519.8,148.3 522.1,148.0 524.3,148.2 526.5,148.6 528.8,148.6 531.0,148.3 533.2,148.0 535.4,148.3 537.7,148.3 539.9,148.3 542.1,148.5 544.4,148.8 546.6,148.4 548.8,148.4 551.1,148.7 553.3,148.3 555.5,148.3 557.8,148.3 560.0,148.3 562.2,148.3 564.5,147.9 566.7,148.3 568.9,148.4 571.2,148.2 573.4,148.2 575.6,147.8 577.9,147.9 580.1,147.9 582.3,148.3 584.6,148.1 586.8,147.7 589.0,147.7 591.3,147.7 593.5,147.5 595.7,147.7 597.9,147.8 600.2,147.6 602.4,147.6 604.6,147.9 606.9,148.1 609.1,147.8 611.3,147.6 613.6,147.3 615.8,147.5 618.0,147.5 620.3,147.1 622.5,147.1 624.7,147.3 627.0,147.2 629.2,146.9 631.4,147.1 633.7,147.1 635.9,146.8 638.1,147.1 640.4,146.7 642.6,147.0 644.8,146.7 647.1,146.5 649.3,146.3 651.5,146.3 653.8,146.6 656.0,146.6 658.2,146.6 660.4,146.6 662.7,147.0 664.9,147.0 667.1,147.0 669.4,146.7 671.6,146.6 673.8,147.0 676.1,147.4 678.3,147.4 680.5,147.1 682.8,146.8 685.0,146.7 687.2,146.5 689.5,146.8 691.7,146.6 693.9,146.6 696.2,146.6 698.4,146.2 700.6,145.9 702.9,145.9 705.1,146.0 707.3,146.0 709.6,146.4 711.8,146.1 714.0,145.7 716.3,145.7 718.5,145.6 720.7,145.3 722.9,145.6 725.2,145.7 727.4,145.7 729.6,145.3 731.9,145.5 734.1,145.2 736.3,145.0 738.6,144.6 740.8,144.9 743.0,145.2 745.3,145.5 747.5,145.6 749.7,145.1 752.0,145.0 754.2,145.4 756.4,145.6 758.7,145.7 760.9,145.4 763.1,145.4 765.4,145.1 767.6,144.7 769.8,145.0 772.1,144.6 774.3,145.0 776.5,145.2 778.8,145.2 781.0,145.0 783.2,145.0 785.4,145.5 787.7,145.9 789.9,145.5 792.1,145.4 794.4,145.6 796.6,145.2 798.8,144.7 801.1,144.3 803.3,144.3 805.5,144.0 807.8,143.9 810.0,143.4" fill="none" stroke="#5b6f8f" stroke-width="1.4"/>
<polyline points="60.0,154.2 62.2,154.5 64.5,130.8 66.7,91.2 68.9,150.3 71.2,137.8 73.4,158.2 75.6,158.0 77.9,149.0 80.1,117.8 82.3,47.6 84.6,102.7 86.8,145.1 89.0,145.3 91.3,130.7 93.5,149.0 95.7,145.5 97.9,165.2 100.2,173.7 102.4,166.5 104.6,158.3 106.9,169.8 109.1,169.8 111.3,169.7 113.6,147.2 115.8,115.2 118.0,64.5 120.3,125.9 122.5,149.1 124.7,113.1 127.0,56.6 129.2,120.1 131.4,168.7 133.7,168.7 135.9,173.2 138.1,164.7 140.4,167.6 142.6,167.6 144.8,173.1 147.1,161.9 149.3,168.7 151.5,153.8 153.8,169.1 156.0,153.6 158.2,154.5 160.4,142.3 162.7,105.8 164.9,137.2 167.1,155.7 169.4,143.3 171.6,159.2 173.8,159.0 176.1,146.4 178.3,146.6 180.5,146.9 182.8,147.1 185.0,143.2 187.2,103.8 189.5,70.3 191.7,34.0 193.9,172.6 196.2,167.0 198.4,167.0 200.6,166.9 202.9,158.7 205.1,141.2 207.3,158.0 209.6,136.3 211.8,144.3 214.0,163.2 216.3,171.8 218.5,172.3 220.7,170.6 222.9,172.7 225.2,172.8 227.4,173.0 229.6,171.3 231.9,173.5 234.1,173.8 236.3,173.9 238.6,172.4 240.8,174.4 243.0,174.6 245.3,174.6 247.5,173.2 249.7,174.6 252.0,174.6 254.2,174.6 256.4,173.7 258.7,174.6 260.9,174.6 263.1,174.6 265.4,174.1 267.6,174.6 269.8,174.6 272.1,174.6 274.3,174.1 276.5,174.6 278.8,174.6 281.0,174.6 283.2,174.0 285.4,174.6 287.7,174.6 289.9,174.6 292.1,174.0 294.4,174.6 296.6,174.6 298.8,174.6 301.1,173.9 303.3,174.6 305.5,174.6 307.8,174.6 310.0,173.9 312.2,174.6 314.5,174.6 316.7,174.6 318.9,173.9 321.2,174.6 323.4,174.6 325.6,174.6 327.9,173.9 330.1,166.9 332.3,149.4 334.6,149.1 336.8,150.1 339.0,166.3 341.3,156.7 343.5,141.1 345.7,140.2 347.9,139.8 350.2,156.1 352.4,142.4 354.6,155.2 356.9,166.8 359.1,172.1 361.3,161.5 363.6,142.0 365.8,142.1 368.0,154.5 370.3,138.6 372.5,162.5 374.7,162.3 377.0,149.0 379.2,121.4 381.4,174.2 383.7,169.3 385.9,160.6 388.1,160.4 390.4,140.5 392.6,140.3 394.8,153.4 397.1,163.3 399.3,145.5 401.5,158.0 403.8,137.5 406.0,121.8 408.2,135.2 410.4,135.5 412.7,147.6 414.9,147.6 417.1,135.3 419.4,134.8 421.6,79.8 423.8,79.9 426.1,165.7 428.3,165.7 430.5,173.0 432.8,173.8 435.0,171.7 437.2,173.9 439.5,173.8 441.7,173.7 443.9,171.8 446.2,173.9 448.4,173.8 450.6,173.8 452.9,171.9 455.1,160.8 457.3,144.8 459.6,157.8 461.8,163.1 464.0,162.9 466.3,139.7 468.5,161.9 470.7,145.1 472.9,115.6 475.2,146.2 477.4,161.4 479.6,144.9 481.9,144.6 484.1,124.1 486.3,63.2 488.6,159.8 490.8,171.7 493.0,173.5 495.3,173.5 497.5,171.5 499.7,171.6 502.0,171.5 504.2,171.6 506.4,153.8 508.7,153.8 510.9,166.6 513.1,173.3 515.4,171.9 517.6,171.8 519.8,173.8 522.1,173.9 524.3,171.9 526.5,161.1 528.8,167.6 531.0,173.9 533.2,171.9 535.4,171.8 537.7,171.8 539.9,171.6 542.1,137.9 544.4,75.7 546.6,34.0 548.8,34.0 551.1,171.8 553.3,154.9 555.5,115.0 557.8,34.0 560.0,170.0 562.2,151.6 564.5,109.5 566.7,34.0 568.9,169.8 571.2,151.7 573.4,109.5 575.6,34.0 577.9,169.9 580.1,151.6 582.3,109.5 584.6,34.0 586.8,169.9 589.0,151.4 591.3,109.8 593.5,34.0 595.7,169.9 597.9,170.1 600.2,170.3 602.4,170.5 604.6,167.2 606.9,170.6 609.1,170.8 611.3,160.9 613.6,160.8 615.8,151.2 618.0,168.0 620.3,171.3 622.5,139.6 624.7,159.2 627.0,170.0 629.2,171.8 631.4,169.0 633.7,171.9 635.9,166.9 638.1,171.7 640.4,156.2 642.6,166.1 644.8,166.3 647.1,146.8 649.3,128.5 651.5,128.7 653.8,129.2 656.0,129.1 658.2,133.1 660.4,103.8 662.7,103.2 664.9,69.5 667.1,159.5 669.4,171.9 671.6,172.2 673.8,159.8 676.1,124.5 678.3,148.4 680.5,148.8 682.8,148.5 685.0,127.1 687.2,152.2 689.5,119.6 691.7,118.9 693.9,156.4 696.2,156.4 698.4,169.4 700.6,169.3 702.9,132.4 705.1,146.1 707.3,130.5 709.6,130.3 711.8,157.7 714.0,135.5 716.3,112.6 718.5,81.2 720.7,128.1 722.9,96.3 725.2,133.5 727.4,101.2 729.6,162.4 731.9,147.0 734.1,164.9 736.3,151.6 738.6,152.7 740.8,166.1 743.0,150.4 745.3,123.1 747.5,127.1 749.7,154.4 752.0,154.4 754.2,135.6 756.4,127.6 758.7,104.4 760.9,37.8 763.1,35.7 765.4,171.6 767.6,171.5 769.8,171.5 772.1,171.7 774.3,169.2 776.5,160.0 778.8,134.2 781.0,103.8 783.2,126.5 785.4,126.9 787.7,126.6 789.9,126.6 792.1,128.5 794.4,152.8 796.6,153.1 798.8,153.0 801.1,134.9 803.3,134.6 805.5,134.3 807.8,149.6 810.0,132.9" fill="none" stroke="#ffd24f" stroke-width="1.5" opacity="0.95"/>
<text x="60" y="29" fill="#cfe0f5">sulwood — commodity (R 2.0)</text>
<text x="822" y="52" fill="#5b6f8f">quiet</text>
<text x="822" y="68" fill="#5b6f8f" font-size="11">σ 0.035</text>
<text x="822" y="92" fill="#ffd24f">trading</text>
<text x="822" y="108" fill="#ffd24f" font-size="11">σ 0.834</text>
<rect x="60" y="210" width="750" height="150" fill="#0b1320" stroke="#1a2740"/>
<line x1="60" y1="360" x2="810" y2="360" stroke="#1a2740"/>
<text x="53" y="364" fill="#6f88ad" text-anchor="end">0.0×</text>
<line x1="60" y1="322.5" x2="810" y2="322.5" stroke="#1a2740"/>
<text x="53" y="326.5" fill="#6f88ad" text-anchor="end">1.0×</text>
<line x1="60" y1="285" x2="810" y2="285" stroke="#1a2740"/>
<text x="53" y="289" fill="#6f88ad" text-anchor="end">2.0×</text>
<line x1="60" y1="247.5" x2="810" y2="247.5" stroke="#1a2740"/>
<text x="53" y="251.5" fill="#6f88ad" text-anchor="end">3.0×</text>
<line x1="60" y1="210" x2="810" y2="210" stroke="#1a2740"/>
<text x="53" y="214" fill="#6f88ad" text-anchor="end">4.0×</text>
<line x1="60" y1="322.5" x2="810" y2="322.5" stroke="#3a5070" stroke-dasharray="4 3"/>
<rect x="220.7142857142857" y="210" width="107.1428571428572" height="150" fill="#ff5d6c" opacity="0.06"/>
<rect x="542.1428571428571" y="210" width="53.57142857142867" height="150" fill="#4fa3ff" opacity="0.06"/>
<polyline points="60.0,285.0 62.2,284.9 64.5,286.2 66.7,286.6 68.9,316.4 71.2,315.6 73.4,315.6 75.6,315.1 77.9,287.3 80.1,287.4 82.3,288.1 84.6,286.9 86.8,313.5 89.0,312.9 91.3,312.9 93.5,312.6 95.7,289.2 97.9,288.3 100.2,288.3 102.4,287.5 104.6,311.5 106.9,312.0 109.1,312.5 111.3,313.0 113.6,290.8 115.8,291.9 118.0,292.0 120.3,291.9 122.5,311.5 124.7,310.9 127.0,310.4 129.2,311.2 131.4,290.4 133.7,289.2 135.9,288.8 138.1,287.9 140.4,307.9 142.6,307.0 144.8,306.4 147.1,306.8 149.3,287.8 151.5,286.6 153.8,287.5 156.0,286.6 158.2,306.5 160.4,306.1 162.7,306.5 164.9,306.1 167.1,286.7 169.4,286.7 171.6,287.2 173.8,288.4 176.1,306.5 178.3,306.5 180.5,307.4 182.8,306.8 185.0,290.1 187.2,290.0 189.5,289.3 191.7,289.3 193.9,306.5 196.2,305.8 198.4,305.3 200.6,305.2 202.9,287.4 205.1,287.4 207.3,287.4 209.6,286.4 211.8,304.3 214.0,304.6 216.3,305.3 218.5,305.9 220.7,289.3 222.9,288.9 225.2,290.1 227.4,290.0 229.6,306.6 231.9,305.8 234.1,306.4 236.3,306.1 238.6,291.5 240.8,290.6 243.0,289.5 245.3,290.3 247.5,306.0 249.7,305.5 252.0,305.4 254.2,304.9 256.4,289.8 258.7,288.6 260.9,288.2 263.1,287.7 265.4,302.6 267.6,303.3 269.8,302.7 272.1,302.7 274.3,288.6 276.5,288.5 278.8,288.5 281.0,288.5 283.2,302.4 285.4,301.8 287.7,301.2 289.9,301.9 292.1,288.0 294.4,288.0 296.6,288.7 298.8,288.3 301.1,303.1 303.3,303.5 305.5,302.9 307.8,303.2 310.0,288.9 312.2,289.0 314.5,287.8 316.7,288.5 318.9,302.3 321.2,302.3 323.4,301.6 325.6,300.6 327.9,287.4 330.1,287.5 332.3,288.2 334.6,288.3 336.8,301.2 339.0,301.9 341.3,302.7 343.5,302.3 345.7,289.9 347.9,290.3 350.2,290.4 352.4,290.3 354.6,303.2 356.9,304.2 359.1,304.7 361.3,304.8 363.6,291.3 365.8,292.4 368.0,292.4 370.3,293.1 372.5,305.1 374.7,304.8 377.0,304.2 379.2,303.6 381.4,290.2 383.7,290.2 385.9,291.0 388.1,291.8 390.4,304.5 392.6,304.5 394.8,305.2 397.1,304.3 399.3,292.9 401.5,292.1 403.8,292.8 406.0,291.9 408.2,304.6 410.4,305.2 412.7,305.9 414.9,305.9 417.1,294.3 419.4,293.9 421.6,294.7 423.8,294.7 426.1,305.7 428.3,305.2 430.5,305.7 432.8,305.8 435.0,295.6 437.2,295.6 439.5,294.9 441.7,295.6 443.9,306.4 446.2,305.5 448.4,305.8 450.6,306.5 452.9,296.9 455.1,295.9 457.3,296.5 459.6,296.1 461.8,307.5 464.0,307.8 466.3,308.1 468.5,307.8 470.7,297.3 472.9,296.2 475.2,295.2 477.4,294.1 479.6,304.7 481.9,304.0 484.1,304.3 486.3,304.4 488.6,292.7 490.8,291.5 493.0,292.7 495.3,293.1 497.5,303.0 499.7,303.7 502.0,303.7 504.2,304.2 506.4,294.7 508.7,293.6 510.9,293.6 513.1,292.9 515.4,302.4 517.6,301.8 519.8,302.2 522.1,303.1 524.3,292.7 526.5,291.8 528.8,292.7 531.0,292.6 533.2,303.0 535.4,303.4 537.7,304.1 539.9,305.0 542.1,295.9 544.4,296.7 546.6,296.7 548.8,296.7 551.1,306.2 553.3,306.3 555.5,305.4 557.8,306.3 560.0,297.2 562.2,296.5 564.5,296.5 566.7,295.4 568.9,305.4 571.2,305.4 573.4,306.3 575.6,305.7 577.9,295.2 580.1,295.2 582.3,295.2 584.6,294.8 586.8,304.7 589.0,305.1 591.3,304.5 593.5,304.5 595.7,295.8 597.9,296.4 600.2,295.6 602.4,295.0 604.6,303.8 606.9,304.2 609.1,304.2 611.3,303.2 613.6,293.7 615.8,294.4 618.0,294.0 620.3,293.2 622.5,303.3 624.7,303.3 627.0,302.6 629.2,303.3 631.4,292.8 633.7,293.6 635.9,292.8 638.1,292.4 640.4,301.3 642.6,301.3 644.8,301.9 647.1,302.0 649.3,292.5 651.5,292.5 653.8,293.7 656.0,293.7 658.2,302.9 660.4,302.2 662.7,301.9 664.9,302.8 667.1,294.7 669.4,294.8 671.6,294.1 673.8,293.2 676.1,302.1 678.3,301.7 680.5,302.3 682.8,302.0 685.0,292.7 687.2,292.7 689.5,291.6 691.7,290.7 693.9,300.2 696.2,300.5 698.4,300.5 700.6,301.5 702.9,291.5 705.1,290.3 707.3,290.4 709.6,289.9 711.8,298.7 714.0,299.3 716.3,299.7 718.5,299.7 720.7,289.2 722.9,290.0 725.2,289.1 727.4,288.3 729.6,297.1 731.9,297.7 734.1,296.7 736.3,296.7 738.6,288.0 740.8,288.0 743.0,289.2 745.3,288.3 747.5,298.4 749.7,297.3 752.0,297.3 754.2,298.3 756.4,289.9 758.7,289.9 760.9,290.8 763.1,291.2 765.4,301.1 767.6,301.8 769.8,301.7 772.1,301.8 774.3,292.4 776.5,292.8 778.8,292.8 781.0,292.9 783.2,302.5 785.4,303.2 787.7,302.5 789.9,303.4 792.1,295.5 794.4,296.2 796.6,296.8 798.8,295.8 801.1,303.4 803.3,303.7 805.5,304.4 807.8,305.1 810.0,297.1" fill="none" stroke="#5b6f8f" stroke-width="1.4"/>
<polyline points="60.0,294.9 62.2,295.8 64.5,268.0 66.7,226.9 68.9,332.6 71.2,332.7 73.4,340.8 75.6,340.5 77.9,311.7 80.1,288.0 82.3,246.2 84.6,277.1 86.8,293.3 89.0,293.9 91.3,293.6 93.5,294.6 95.7,308.5 97.9,327.1 100.2,338.7 102.4,338.9 104.6,288.4 106.9,288.5 109.1,251.6 111.3,211.4 113.6,349.2 115.8,349.2 118.0,349.2 120.3,349.3 122.5,346.2 124.7,346.1 127.0,349.3 129.2,343.7 131.4,323.7 133.7,332.9 135.9,333.4 138.1,340.5 140.4,312.3 142.6,297.4 144.8,314.9 147.1,315.0 149.3,290.0 151.5,289.2 153.8,250.7 156.0,289.4 158.2,338.7 160.4,344.1 162.7,344.3 164.9,336.2 167.1,319.7 169.4,302.1 171.6,302.8 173.8,318.3 176.1,283.6 178.3,283.5 180.5,284.2 182.8,285.0 185.0,316.9 187.2,316.7 189.5,293.9 191.7,294.3 193.9,328.8 196.2,316.2 198.4,315.7 200.6,315.7 202.9,281.8 205.1,283.1 207.3,253.0 209.6,280.2 211.8,338.5 214.0,338.2 216.3,345.5 218.5,348.7 220.7,345.5 222.9,348.9 225.2,349.0 227.4,349.2 229.6,346.0 231.9,349.3 234.1,349.6 236.3,349.7 238.6,346.7 240.8,349.9 243.0,350.1 245.3,350.3 247.5,347.3 249.7,350.4 252.0,350.4 254.2,350.4 256.4,347.6 258.7,350.6 260.9,350.6 263.1,350.6 265.4,347.9 267.6,350.6 269.8,350.6 272.1,350.6 274.3,348.3 276.5,350.6 278.8,350.6 281.0,350.6 283.2,348.4 285.4,350.6 287.7,350.6 289.9,350.6 292.1,348.4 294.4,350.6 296.6,350.6 298.8,350.6 301.1,348.2 303.3,350.6 305.5,350.6 307.8,350.6 310.0,348.2 312.2,350.6 314.5,350.6 316.7,350.6 318.9,348.3 321.2,350.6 323.4,350.6 325.6,350.6 327.9,348.4 330.1,350.6 332.3,347.7 334.6,341.0 336.8,305.6 339.0,325.6 341.3,336.7 343.5,336.5 345.7,285.5 347.9,308.0 350.2,307.3 352.4,319.6 354.6,284.7 356.9,283.1 359.1,304.0 361.3,303.6 363.6,324.8 365.8,324.7 368.0,324.8 370.3,324.7 372.5,279.0 374.7,280.3 377.0,253.0 379.2,214.5 381.4,349.6 383.7,346.0 385.9,346.2 388.1,341.5 390.4,291.5 392.6,290.5 394.8,291.4 397.1,311.0 399.3,288.4 401.5,288.5 403.8,256.9 406.0,255.2 408.2,338.1 410.4,345.1 412.7,339.5 414.9,339.1 417.1,335.3 419.4,342.4 421.6,342.6 423.8,348.4 426.1,346.5 428.3,349.7 430.5,349.6 432.8,349.8 435.0,346.3 437.2,349.5 439.5,349.6 441.7,345.9 443.9,331.3 446.2,339.3 448.4,339.1 450.6,331.0 452.9,284.0 455.1,309.0 457.3,308.3 459.6,275.9 461.8,290.3 464.0,289.9 466.3,260.3 468.5,290.8 470.7,285.9 472.9,286.9 475.2,286.1 477.4,285.0 479.6,340.2 481.9,339.9 484.1,346.8 486.3,346.8 488.6,336.3 490.8,342.9 493.0,343.0 495.3,342.8 497.5,320.0 499.7,319.6 502.0,319.7 504.2,332.0 506.4,305.4 508.7,318.8 510.9,319.7 513.1,319.8 515.4,286.3 517.6,285.7 519.8,287.1 522.1,313.4 524.3,288.8 526.5,249.9 528.8,211.4 531.0,212.2 533.2,349.5 535.4,345.3 537.7,345.3 539.9,345.2 542.1,277.3 544.4,210.0 546.6,210.0 548.8,210.0 551.1,347.7 553.3,331.3 555.5,292.8 557.8,210.0 560.0,347.0 562.2,329.9 564.5,290.9 566.7,210.0 568.9,346.9 571.2,329.9 573.4,290.9 575.6,210.0 577.9,346.7 580.1,330.0 582.3,290.5 584.6,210.0 586.8,346.8 589.0,329.7 591.3,290.9 593.5,210.0 595.7,322.7 597.9,323.2 600.2,308.3 602.4,309.4 604.6,262.9 606.9,298.3 609.1,314.5 611.3,294.2 613.6,266.9 615.8,268.8 618.0,268.6 620.3,232.1 622.5,348.2 624.7,348.4 627.0,348.3 629.2,342.7 631.4,319.9 633.7,319.9 635.9,319.3 638.1,319.2 640.4,267.3 642.6,265.7 644.8,296.1 647.1,295.3 649.3,308.3 651.5,307.6 653.8,308.0 656.0,290.2 658.2,322.8 660.4,322.2 662.7,336.4 664.9,336.3 667.1,323.3 669.4,323.8 671.6,323.2 673.8,323.2 676.1,289.9 678.3,251.8 680.5,250.2 682.8,213.5 685.0,343.4 687.2,343.4 689.5,347.8 691.7,341.4 693.9,291.2 696.2,292.3 698.4,291.4 700.6,290.8 702.9,323.3 705.1,323.5 707.3,323.5 709.6,323.8 711.8,270.2 714.0,270.3 716.3,301.6 718.5,301.6 720.7,269.2 722.9,267.9 725.2,267.4 727.4,267.4 729.6,314.2 731.9,286.7 734.1,248.0 736.3,282.1 738.6,334.9 740.8,334.6 743.0,334.8 745.3,334.5 747.5,323.9 749.7,324.3 752.0,337.0 754.2,325.3 756.4,271.6 758.7,271.9 760.9,270.7 763.1,270.1 765.4,339.6 767.6,339.5 769.8,339.4 772.1,339.5 774.3,309.6 776.5,309.0 778.8,321.9 781.0,300.5 783.2,301.8 785.4,320.5 787.7,320.9 789.9,320.6 792.1,270.9 794.4,272.7 796.6,299.7 798.8,300.7 801.1,291.2 803.3,258.4 805.5,257.5 807.8,256.4 810.0,330.4" fill="none" stroke="#ffd24f" stroke-width="1.5" opacity="0.95"/>
<text x="60" y="205" fill="#cfe0f5">tar — valuable (R 3.0)</text>
<text x="822" y="228" fill="#5b6f8f">quiet</text>
<text x="822" y="244" fill="#5b6f8f" font-size="11">σ 0.197</text>
<text x="822" y="268" fill="#ffd24f">trading</text>
<text x="822" y="284" fill="#ffd24f" font-size="11">σ 0.958</text>
<rect x="60" y="386" width="750" height="150" fill="#0b1320" stroke="#1a2740"/>
<line x1="60" y1="536" x2="810" y2="536" stroke="#1a2740"/>
<text x="53" y="540" fill="#6f88ad" text-anchor="end">0.0×</text>
<line x1="60" y1="498.5" x2="810" y2="498.5" stroke="#1a2740"/>
<text x="53" y="502.5" fill="#6f88ad" text-anchor="end">1.0×</text>
<line x1="60" y1="461" x2="810" y2="461" stroke="#1a2740"/>
<text x="53" y="465" fill="#6f88ad" text-anchor="end">2.0×</text>
<line x1="60" y1="423.5" x2="810" y2="423.5" stroke="#1a2740"/>
<text x="53" y="427.5" fill="#6f88ad" text-anchor="end">3.0×</text>
<line x1="60" y1="386" x2="810" y2="386" stroke="#1a2740"/>
<text x="53" y="390" fill="#6f88ad" text-anchor="end">4.0×</text>
<line x1="60" y1="498.5" x2="810" y2="498.5" stroke="#3a5070" stroke-dasharray="4 3"/>
<rect x="220.7142857142857" y="386" width="107.1428571428572" height="150" fill="#ff5d6c" opacity="0.06"/>
<rect x="542.1428571428571" y="386" width="53.57142857142867" height="150" fill="#4fa3ff" opacity="0.06"/>
<polyline points="60.0,452.2 62.2,442.4 64.5,461.0 66.7,468.9 68.9,491.4 71.2,480.3 73.4,486.2 75.6,480.3 77.9,454.9 80.1,463.4 82.3,471.0 84.6,454.9 86.8,489.2 89.0,483.7 91.3,489.2 93.5,483.7 95.7,472.3 97.9,464.9 100.2,472.3 102.4,464.9 104.6,492.9 106.9,497.4 109.1,492.9 111.3,482.2 113.6,438.2 115.8,448.5 118.0,457.7 120.3,465.9 122.5,492.1 124.7,496.7 127.0,492.1 129.2,486.9 131.4,480.5 133.7,473.9 135.9,480.5 138.1,473.9 140.4,486.2 142.6,480.3 144.8,473.8 147.1,458.3 149.3,440.2 151.5,428.9 153.8,450.2 156.0,467.3 158.2,473.0 160.4,479.7 162.7,473.0 164.9,479.7 167.1,450.9 169.4,459.8 171.6,450.9 173.8,440.9 176.1,472.4 178.3,479.1 180.5,490.4 182.8,485.1 185.0,460.3 187.2,475.3 189.5,468.2 191.7,475.3 193.9,484.7 196.2,478.6 198.4,484.7 200.6,490.0 202.9,468.6 205.1,460.7 207.3,451.9 209.6,442.0 211.8,471.5 214.0,463.9 216.3,455.4 218.5,463.9 220.7,431.5 222.9,442.4 225.2,452.3 227.4,461.1 229.6,471.1 231.9,463.5 234.1,477.9 236.3,471.1 238.6,469.2 240.8,452.6 243.0,461.4 245.3,452.6 247.5,477.6 249.7,470.7 252.0,454.5 254.2,463.1 256.4,432.3 258.7,443.2 260.9,432.3 263.1,443.2 265.4,454.1 267.6,462.7 269.8,454.1 272.1,470.4 274.3,443.5 276.5,432.7 278.8,443.5 281.0,432.7 283.2,462.4 285.4,453.8 287.7,462.4 289.9,453.8 292.1,443.8 294.4,462.1 296.6,469.9 298.8,476.8 301.1,483.0 303.3,476.8 305.5,469.9 307.8,462.1 310.0,433.3 312.2,453.7 314.5,444.1 316.7,453.7 318.9,461.9 321.2,469.6 323.4,476.6 325.6,469.6 327.9,462.5 330.1,453.9 332.3,462.5 334.6,444.3 336.8,469.4 339.0,461.6 341.3,452.9 343.5,461.6 345.7,454.1 347.9,462.7 350.2,470.4 352.4,462.7 354.6,488.1 356.9,482.5 359.1,476.2 361.3,488.1 363.6,470.6 365.8,462.9 368.0,444.7 370.3,454.3 372.5,476.1 374.7,482.4 377.0,493.0 379.2,488.0 381.4,483.7 383.7,477.6 385.9,483.7 388.1,477.6 390.4,497.5 392.6,492.9 394.8,487.9 397.1,492.9 399.3,477.7 401.5,470.8 403.8,463.2 406.0,454.6 408.2,475.8 410.4,482.1 412.7,475.8 414.9,460.8 417.1,454.8 419.4,470.9 421.6,463.3 423.8,477.8 426.1,482.0 428.3,468.6 430.5,460.7 432.8,451.8 435.0,445.4 437.2,463.4 439.5,471.1 441.7,477.9 443.9,492.7 446.2,487.6 448.4,481.9 450.6,487.6 452.9,489.5 455.1,484.1 457.3,478.0 459.6,471.2 461.8,475.4 464.0,481.8 466.3,468.3 468.5,475.4 470.7,445.7 472.9,435.1 475.2,455.2 477.4,463.7 479.6,460.2 481.9,468.2 484.1,475.3 486.3,487.4 488.6,463.8 490.8,471.4 493.0,463.8 495.3,478.1 497.5,492.4 499.7,487.3 502.0,481.6 504.2,475.2 506.4,446.0 508.7,423.6 510.9,446.0 513.1,455.4 515.4,475.1 517.6,468.0 519.8,481.5 522.1,492.3 524.3,478.3 526.5,464.0 528.8,478.3 531.0,484.4 533.2,487.1 535.4,492.3 537.7,481.4 539.9,475.0 542.1,471.6 544.4,478.4 546.6,464.1 548.8,471.6 551.1,474.9 553.3,459.8 555.5,450.8 557.8,459.8 560.0,455.7 562.2,464.1 564.5,455.7 566.7,464.1 568.9,481.3 571.2,487.0 573.4,481.3 575.6,487.0 577.9,489.9 580.1,484.5 582.3,478.5 584.6,484.5 586.8,481.2 589.0,486.9 591.3,481.2 593.5,474.8 595.7,471.8 597.9,455.9 600.2,471.8 602.4,478.6 604.6,481.1 606.9,474.7 609.1,459.5 611.3,467.5 613.6,446.6 615.8,464.4 618.0,456.0 620.3,436.1 622.5,459.4 624.7,467.4 627.0,459.4 629.2,450.4 631.4,446.7 633.7,456.0 635.9,446.7 638.1,436.2 640.4,459.3 642.6,440.2 644.8,459.3 647.1,450.3 649.3,446.8 651.5,436.3 653.8,446.8 656.0,456.1 658.2,474.5 660.4,459.2 662.7,467.3 664.9,474.5 667.1,456.2 669.4,446.8 671.6,456.2 673.8,446.8 676.1,450.1 678.3,459.1 680.5,474.4 682.8,467.2 685.0,472.1 687.2,464.6 689.5,456.3 691.7,464.6 693.9,467.1 696.2,480.8 698.4,486.6 700.6,491.8 702.9,478.9 705.1,490.2 707.3,484.9 709.6,472.2 711.8,486.6 714.0,480.8 716.3,474.3 718.5,486.6 720.7,490.3 722.9,484.9 725.2,472.2 727.4,464.8 729.6,467.0 731.9,458.9 734.1,449.8 736.3,458.9 738.6,425.1 740.8,436.7 743.0,447.1 745.3,456.5 747.5,474.2 749.7,466.9 752.0,474.2 754.2,466.9 756.4,464.9 758.7,472.3 760.9,456.5 763.1,464.9 765.4,480.6 767.6,474.1 769.8,466.9 772.1,458.7 774.3,436.9 776.5,456.6 778.8,447.3 781.0,425.2 783.2,449.6 785.4,466.8 787.7,458.7 789.9,449.6 792.1,447.3 794.4,436.9 796.6,456.6 798.8,465.0 801.1,480.5 803.3,486.3 805.5,474.0 807.8,466.7 810.0,472.5" fill="none" stroke="#5b6f8f" stroke-width="1.4"/>
<polyline points="60.0,475.9 62.2,461.0 64.5,468.9 66.7,468.9 68.9,500.3 71.2,500.3 73.4,500.3 75.6,500.3 77.9,483.6 80.1,470.6 82.3,462.9 84.6,462.9 86.8,498.6 89.0,494.3 91.3,494.3 93.5,483.9 95.7,471.4 97.9,445.9 100.2,445.9 102.4,455.3 104.6,482.6 106.9,493.2 109.1,482.6 111.3,476.3 113.6,410.7 115.8,423.9 118.0,435.6 120.3,435.6 122.5,468.5 124.7,475.6 127.0,487.6 129.2,492.7 131.4,464.2 133.7,464.2 135.9,446.4 138.1,435.9 140.4,468.0 142.6,481.5 144.8,492.4 147.1,497.0 149.3,478.3 151.5,478.3 153.8,464.0 156.0,484.4 158.2,497.0 160.4,487.3 162.7,487.3 164.9,487.3 167.1,463.5 169.4,463.5 171.6,445.5 173.8,463.5 176.1,475.4 178.3,481.7 180.5,492.5 182.8,481.7 185.0,444.9 187.2,454.5 189.5,463.1 191.7,470.7 193.9,482.3 196.2,469.0 198.4,469.0 200.6,482.3 202.9,444.4 205.1,421.6 207.3,421.6 209.6,421.6 211.8,461.4 214.0,461.4 216.3,476.2 218.5,469.2 220.7,443.4 222.9,469.6 225.2,491.0 227.4,511.1 229.6,487.4 231.9,487.4 234.1,499.1 236.3,494.8 238.6,484.5 240.8,484.5 243.0,484.5 245.3,500.4 247.5,482.3 249.7,482.3 252.0,498.9 254.2,510.3 256.4,483.9 258.7,500.0 260.9,508.7 263.1,517.1 265.4,477.7 267.6,499.9 269.8,499.9 272.1,505.5 274.3,480.6 276.5,480.6 278.8,489.1 281.0,494.0 283.2,480.7 285.4,497.8 287.7,506.5 289.9,517.7 292.1,495.1 294.4,507.7 296.6,514.6 298.8,521.2 301.1,511.0 303.3,514.9 305.5,522.9 307.8,522.9 310.0,512.5 312.2,518.2 314.5,523.7 316.7,526.6 318.9,525.5 321.2,526.6 323.4,526.6 325.6,526.6 327.9,524.3 330.1,524.3 332.3,519.7 334.6,521.4 336.8,506.8 339.0,506.8 341.3,506.8 343.5,506.8 345.7,453.2 347.9,432.7 350.2,453.2 352.4,443.5 354.6,491.9 356.9,500.7 359.1,504.4 361.3,504.4 363.6,453.1 365.8,453.1 368.0,453.1 370.3,432.6 372.5,508.0 374.7,508.0 377.0,501.0 379.2,508.0 381.4,444.6 383.7,444.6 385.9,408.5 388.1,433.9 390.4,491.5 392.6,486.3 394.8,496.1 397.1,504.1 399.3,463.6 401.5,463.6 403.8,463.6 406.0,463.6 408.2,503.6 410.4,510.0 412.7,507.0 414.9,507.0 417.1,436.3 419.4,411.5 421.6,446.7 423.8,446.7 426.1,499.1 428.3,506.4 430.5,506.4 432.8,506.4 435.0,456.4 437.2,456.4 439.5,464.7 441.7,456.4 443.9,502.9 446.2,502.9 448.4,499.0 450.6,502.9 452.9,457.1 455.1,457.1 457.3,437.5 459.6,437.5 461.8,494.0 464.0,489.1 466.3,470.6 468.5,483.6 470.7,413.6 472.9,426.4 475.2,399.2 477.4,399.2 479.6,477.2 481.9,488.9 484.1,483.4 486.3,483.4 488.6,427.7 490.8,458.4 493.0,458.4 495.3,427.7 497.5,482.5 499.7,482.5 502.0,482.5 504.2,482.5 506.4,401.2 508.7,428.0 510.9,415.4 513.1,415.4 515.4,482.3 517.6,493.0 519.8,501.6 522.1,501.6 524.3,474.4 526.5,467.2 528.8,467.2 531.0,459.1 533.2,501.2 535.4,497.1 537.7,504.9 539.9,501.2 542.1,425.0 544.4,386.0 546.6,386.0 548.8,386.0 551.1,519.2 553.3,509.4 555.5,498.2 557.8,474.8 560.0,431.5 562.2,398.1 564.5,386.0 566.7,386.0 568.9,519.2 571.2,512.2 573.4,493.7 575.6,474.8 577.9,427.2 580.1,386.0 582.3,386.0 584.6,386.0 586.8,521.0 589.0,511.7 591.3,504.0 593.5,485.1 595.7,402.1 597.9,416.2 600.2,402.1 602.4,428.7 604.6,499.0 606.9,502.9 609.1,494.7 611.3,494.7 613.6,418.1 615.8,388.8 618.0,418.1 620.3,430.4 622.5,505.6 624.7,505.6 627.0,505.6 629.2,502.1 631.4,469.2 633.7,469.2 635.9,469.2 638.1,442.8 640.4,508.2 642.6,497.2 644.8,492.6 647.1,481.9 649.3,420.5 651.5,443.5 653.8,443.5 656.0,443.5 658.2,504.7 660.4,508.0 662.7,504.7 664.9,508.0 667.1,455.0 669.4,434.8 671.6,409.7 673.8,423.0 676.1,490.8 678.3,490.8 680.5,479.6 682.8,479.6 685.0,396.3 687.2,424.1 689.5,435.8 691.7,410.9 693.9,485.0 696.2,495.1 698.4,490.3 700.6,499.4 702.9,437.1 705.1,447.5 707.3,465.1 709.6,465.1 711.8,498.7 714.0,498.7 716.3,494.3 718.5,498.7 720.7,426.7 722.9,399.6 725.2,413.9 727.4,413.9 729.6,493.7 731.9,488.8 734.1,498.2 736.3,502.1 738.6,458.5 740.8,449.5 743.0,428.0 745.3,428.0 747.5,469.0 749.7,476.0 752.0,488.0 754.2,488.0 756.4,428.3 758.7,428.3 760.9,415.7 763.1,415.7 765.4,475.8 767.6,475.8 769.8,475.8 772.1,482.1 774.3,428.8 776.5,450.1 778.8,467.2 781.0,450.1 783.2,492.5 785.4,492.5 787.7,501.2 789.9,501.2 792.1,450.6 794.4,450.6 796.6,467.6 798.8,467.6 801.1,500.9 803.3,507.9 805.5,500.9 807.8,504.6 810.0,460.1" fill="none" stroke="#ffd24f" stroke-width="1.5" opacity="0.95"/>
<text x="60" y="381" fill="#cfe0f5">antler trophy — rare valuable (R 3.0, tiny stock)</text>
<text x="822" y="404" fill="#5b6f8f">quiet</text>
<text x="822" y="420" fill="#5b6f8f" font-size="11">σ 0.419</text>
<text x="822" y="444" fill="#ffd24f">trading</text>
<text x="822" y="460" fill="#ffd24f" font-size="11">σ 0.914</text>
<text x="60" y="554" fill="#6f88ad" text-anchor="middle">d0</text>
<text x="167.14285714285714" y="554" fill="#6f88ad" text-anchor="middle">d2</text>
<text x="274.2857142857143" y="554" fill="#6f88ad" text-anchor="middle">d4</text>
<text x="381.4285714285714" y="554" fill="#6f88ad" text-anchor="middle">d6</text>
<text x="488.57142857142856" y="554" fill="#6f88ad" text-anchor="middle">d8</text>
<text x="595.7142857142858" y="554" fill="#6f88ad" text-anchor="middle">d10</text>
<text x="702.8571428571428" y="554" fill="#6f88ad" text-anchor="middle">d12</text>
<text x="810" y="554" fill="#6f88ad" text-anchor="middle">d14</text>
</svg>