<svg xmlns="http://www.w3.org/2000/svg" width="960" height="460" font-family="sans-serif" font-size="13">
<rect width="960" height="460" fill="#0e1726"/>
<line x1="56" y1="416" x2="810" y2="416" stroke="#23314a" stroke-width="1"/>
<text x="48" y="420" fill="#7891b5" text-anchor="end">0.0×</text>
<line x1="56" y1="350.6666666666667" x2="810" y2="350.6666666666667" stroke="#23314a" stroke-width="1"/>
<text x="48" y="354.6666666666667" fill="#7891b5" text-anchor="end">0.5×</text>
<line x1="56" y1="285.33333333333337" x2="810" y2="285.33333333333337" stroke="#23314a" stroke-width="1"/>
<text x="48" y="289.33333333333337" fill="#7891b5" text-anchor="end">1.0×</text>
<line x1="56" y1="220" x2="810" y2="220" stroke="#23314a" stroke-width="1"/>
<text x="48" y="224" fill="#7891b5" text-anchor="end">1.5×</text>
<line x1="56" y1="154.66666666666669" x2="810" y2="154.66666666666669" stroke="#23314a" stroke-width="1"/>
<text x="48" y="158.66666666666669" fill="#7891b5" text-anchor="end">2.0×</text>
<line x1="56" y1="89.33333333333331" x2="810" y2="89.33333333333331" stroke="#23314a" stroke-width="1"/>
<text x="48" y="93.33333333333331" fill="#7891b5" text-anchor="end">2.5×</text>
<line x1="56" y1="24" x2="810" y2="24" stroke="#23314a" stroke-width="1"/>
<text x="48" y="28" fill="#7891b5" text-anchor="end">3.0×</text>
<line x1="56" y1="24" x2="56" y2="416" stroke="#1a2740" stroke-width="1"/>
<text x="56" y="436" fill="#7891b5" text-anchor="middle">d0</text>
<line x1="163.71428571428572" y1="24" x2="163.71428571428572" y2="416" stroke="#1a2740" stroke-width="1"/>
<text x="163.71428571428572" y="436" fill="#7891b5" text-anchor="middle">d2</text>
<line x1="271.42857142857144" y1="24" x2="271.42857142857144" y2="416" stroke="#1a2740" stroke-width="1"/>
<text x="271.42857142857144" y="436" fill="#7891b5" text-anchor="middle">d4</text>
<line x1="379.1428571428571" y1="24" x2="379.1428571428571" y2="416" stroke="#1a2740" stroke-width="1"/>
<text x="379.1428571428571" y="436" fill="#7891b5" text-anchor="middle">d6</text>
<line x1="486.85714285714283" y1="24" x2="486.85714285714283" y2="416" stroke="#1a2740" stroke-width="1"/>
<text x="486.85714285714283" y="436" fill="#7891b5" text-anchor="middle">d8</text>
<line x1="594.5714285714286" y1="24" x2="594.5714285714286" y2="416" stroke="#1a2740" stroke-width="1"/>
<text x="594.5714285714286" y="436" fill="#7891b5" text-anchor="middle">d10</text>
<line x1="702.2857142857142" y1="24" x2="702.2857142857142" y2="416" stroke="#1a2740" stroke-width="1"/>
<text x="702.2857142857142" y="436" fill="#7891b5" text-anchor="middle">d12</text>
<line x1="810" y1="24" x2="810" y2="416" stroke="#1a2740" stroke-width="1"/>
<text x="810" y="436" fill="#7891b5" text-anchor="middle">d14</text>
<line x1="56" y1="285.33333333333337" x2="810" y2="285.33333333333337" stroke="#3a5070" stroke-width="1.5" stroke-dasharray="4 3"/>
<text x="816" y="289.33333333333337" fill="#3a5070">base</text>
<polyline points="56.0,286.0 58.2,287.4 60.5,288.6 62.7,287.1 65.0,287.0 67.2,287.4 69.5,287.6 71.7,286.2 74.0,285.0 76.2,284.8 78.4,285.7 80.7,284.8 82.9,284.6 85.2,285.5 87.4,285.4 89.7,286.4 91.9,287.2 94.1,287.5 96.4,288.6 98.6,287.3 100.9,288.0 103.1,287.3 105.4,286.8 107.6,285.7 109.9,286.0 112.1,284.9 114.3,286.2 116.6,284.9 118.8,283.3 121.1,283.7 123.3,283.0 125.6,282.6 127.8,283.3 130.1,283.9 132.3,285.4 134.5,285.2 136.8,283.9 139.0,284.9 141.3,284.1 143.5,284.0 145.8,285.1 148.0,284.0 150.3,283.3 152.5,283.1 154.7,282.1 157.0,283.1 159.2,281.8 161.5,282.9 163.7,281.7 166.0,283.1 168.2,284.1 170.4,282.7 172.7,282.7 174.9,283.6 177.2,284.6 179.4,285.7 181.7,285.6 183.9,285.4 186.2,286.2 188.4,284.6 190.6,283.4 192.9,282.8 195.1,282.7 197.4,282.6 199.6,284.1 201.9,284.0 204.1,283.0 206.4,281.9 208.6,280.8 210.8,281.9 213.1,281.0 215.3,280.5 217.6,279.3 219.8,278.4 222.1,278.2 224.3,278.1 226.5,276.9 228.8,277.1 231.0,276.4 233.3,274.7 235.5,274.7 237.8,275.8 240.0,274.8 242.3,275.8 244.5,275.7 246.7,276.7 249.0,276.6 251.2,276.6 253.5,278.2 255.7,279.2 258.0,280.5 260.2,281.9 262.5,281.5 264.7,281.5 266.9,280.4 269.2,279.3 271.4,280.2 273.7,281.2 275.9,282.2 278.2,282.3 280.4,283.8 282.6,284.3 284.9,283.3 287.1,282.3 289.4,280.9 291.6,282.2 293.9,282.3 296.1,281.6 298.4,283.1 300.6,283.1 302.8,282.4 305.1,282.7 307.3,283.8 309.6,283.0 311.8,284.4 314.1,282.9 316.3,282.7 318.6,284.3 320.8,283.9 323.0,283.5 325.3,282.0 327.5,282.6 329.8,281.9 332.0,282.6 334.3,281.1 336.5,281.9 338.8,282.4 341.0,284.1 343.2,282.3 345.5,282.4 347.7,281.5 350.0,283.0 352.2,283.7 354.5,285.2 356.7,285.2 358.9,285.7 361.2,284.8 363.4,284.6 365.7,284.6 367.9,285.5 370.2,285.6 372.4,285.7 374.7,287.0 376.9,287.1 379.1,288.2 381.4,289.8 383.6,289.6 385.9,289.5 388.1,290.0 390.4,289.6 392.6,288.9 394.9,288.7 397.1,287.7 399.3,287.8 401.6,286.5 403.8,284.8 406.1,285.4 408.3,284.9 410.6,284.7 412.8,284.0 415.0,285.0 417.3,286.0 419.5,285.1 421.8,284.1 424.0,285.4 426.3,284.1 428.5,284.2 430.8,283.8 433.0,283.3 435.2,283.4 437.5,283.9 439.7,282.5 442.0,284.0 444.2,283.4 446.5,283.9 448.7,285.0 451.0,285.1 453.2,285.3 455.4,286.8 457.7,286.9 459.9,286.0 462.2,287.3 464.4,287.5 466.7,286.7 468.9,286.1 471.1,285.5 473.4,284.0 475.6,283.9 477.9,284.7 480.1,283.5 482.4,283.7 484.6,283.8 486.9,282.4 489.1,280.8 491.3,279.9 493.6,278.8 495.8,277.5 498.1,277.6 500.3,276.5 502.6,275.5 504.8,274.2 507.1,275.2 509.3,275.1 511.5,275.3 513.8,274.3 516.0,275.8 518.3,275.5 520.5,274.5 522.8,274.6 525.0,273.0 527.3,274.6 529.5,276.1 531.7,275.9 534.0,275.2 536.2,275.5 538.5,277.2 540.7,278.4 543.0,278.9 545.2,279.6 547.4,278.0 549.7,276.7 551.9,276.1 554.2,277.4 556.4,278.9 558.7,279.8 560.9,280.6 563.2,281.5 565.4,282.5 567.6,282.5 569.9,284.2 572.1,283.6 574.4,282.6 576.6,281.1 578.9,280.6 581.1,280.2 583.4,281.6 585.6,281.3 587.8,282.0 590.1,283.3 592.3,284.3 594.6,282.9 596.8,282.8 599.1,283.1 601.3,284.0 603.5,282.8 605.8,282.2 608.0,282.2 610.3,282.4 612.5,281.5 614.8,280.8 617.0,282.0 619.3,281.0 621.5,280.1 623.7,279.3 626.0,280.3 628.2,281.1 630.5,282.4 632.7,283.2 635.0,283.0 637.2,284.3 639.5,283.1 641.7,283.6 643.9,284.3 646.2,285.1 648.4,284.3 650.7,285.1 652.9,284.3 655.2,285.2 657.4,285.8 659.6,284.5 661.9,284.2 664.1,284.2 666.4,283.5 668.6,282.4 670.9,283.7 673.1,285.0 675.4,283.6 677.6,283.9 679.8,283.3 682.1,283.4 684.3,285.0 686.6,283.9 688.8,282.3 691.1,282.0 693.3,282.1 695.6,283.3 697.8,282.3 700.0,283.2 702.3,284.8 704.5,284.9 706.8,286.1 709.0,287.2 711.3,286.8 713.5,285.7 715.8,284.5 718.0,285.9 720.2,287.2 722.5,288.5 724.7,289.8 727.0,288.6 729.2,289.3 731.5,288.5 733.7,288.4 735.9,289.9 738.2,288.6 740.4,288.6 742.7,289.5 744.9,289.6 747.2,289.2 749.4,288.4 751.7,289.7 753.9,288.5 756.1,287.2 758.4,286.1 760.6,285.1 762.9,286.7 765.1,286.3 767.4,285.4 769.6,286.0 771.9,286.8 774.1,286.8 776.3,285.2 778.6,285.0 780.8,286.6 783.1,285.2 785.3,286.4 787.6,287.4 789.8,288.9 792.0,289.7 794.3,289.2 796.5,289.2 798.8,287.9 801.0,288.4 803.3,290.0 805.5,288.7 807.8,287.8 810.0,289.2" fill="none" stroke="#4fa3ff" stroke-width="1.6" opacity="0.9"/>
<line x1="826" y1="30" x2="844" y2="30" stroke="#4fa3ff" stroke-width="3"/>
<text x="848" y="34" fill="#cfe0f5">sulwood (commodity, R2.0)</text>
<polyline points="56.0,152.9 58.2,150.4 60.5,147.7 62.7,150.3 65.0,255.2 67.2,257.1 69.5,256.2 71.7,254.1 74.0,149.2 76.2,146.8 78.4,146.7 80.7,146.4 82.9,242.5 85.2,244.6 87.4,246.6 89.7,245.6 91.9,154.9 94.1,155.0 96.4,158.4 98.6,155.8 100.9,242.6 103.1,239.8 105.4,241.6 107.6,243.6 109.9,165.6 112.1,168.1 114.3,172.4 116.6,172.3 118.8,246.0 121.1,248.3 123.3,246.2 125.6,243.3 127.8,171.1 130.1,168.3 132.3,172.6 134.5,170.2 136.8,237.8 139.0,236.6 141.3,234.6 143.5,234.5 145.8,167.7 148.0,166.1 150.3,169.3 152.5,167.7 154.7,235.9 157.0,233.7 159.2,231.4 161.5,232.7 163.7,167.9 166.0,166.5 168.2,169.8 170.4,165.7 172.7,230.4 174.9,232.5 177.2,232.7 179.4,234.7 181.7,172.7 183.9,171.2 186.2,169.3 188.4,166.1 190.6,226.4 192.9,228.6 195.1,227.2 197.4,227.2 199.6,163.9 201.9,168.2 204.1,172.5 206.4,173.9 208.6,234.9 210.8,233.3 213.1,236.1 215.3,235.2 217.6,174.5 219.8,176.1 222.1,180.0 224.3,180.0 226.5,233.7 228.8,231.9 231.0,230.8 233.3,231.9 235.5,173.0 237.8,175.4 240.0,173.8 242.3,171.1 244.5,225.1 246.7,227.7 249.0,230.7 251.2,234.0 253.5,177.4 255.7,181.2 258.0,179.5 260.2,179.9 262.5,235.0 264.7,237.9 266.9,237.7 269.2,236.6 271.4,185.3 273.7,183.8 275.9,183.7 278.2,180.0 280.4,234.9 282.6,236.2 284.9,238.3 287.1,239.5 289.4,191.4 291.6,192.6 293.9,188.9 296.1,184.8 298.4,237.8 300.6,239.9 302.8,242.1 305.1,240.0 307.3,189.4 309.6,189.0 311.8,192.9 314.1,195.4 316.3,242.3 318.6,240.2 320.8,242.0 323.0,239.0 325.3,187.9 327.5,191.4 329.8,194.0 332.0,191.2 334.3,238.0 336.5,238.2 338.8,241.2 341.0,240.3 343.2,192.9 345.5,192.9 347.7,190.0 350.0,189.9 352.2,234.1 354.5,231.0 356.7,227.9 358.9,230.9 361.2,183.1 363.4,179.3 365.7,176.2 367.9,174.5 370.2,220.1 372.4,220.2 374.7,222.2 376.9,224.5 379.1,173.0 381.4,172.7 383.6,174.1 385.9,175.7 388.1,226.4 390.4,228.5 392.6,228.3 394.9,226.1 397.1,177.3 399.3,177.1 401.6,180.3 403.8,183.4 406.1,229.5 408.3,226.9 410.6,229.9 412.8,227.9 415.0,183.8 417.3,180.7 419.5,176.9 421.8,175.2 424.0,220.3 426.3,222.6 428.5,219.5 430.8,219.6 433.0,173.0 435.2,170.1 437.5,167.3 439.7,169.1 442.0,214.6 444.2,215.8 446.5,219.1 448.7,217.9 451.0,170.2 453.2,170.2 455.4,169.9 457.7,172.6 459.9,217.3 462.2,219.8 464.4,216.6 466.7,216.5 468.9,167.5 471.1,165.0 473.4,162.6 475.6,164.4 477.9,210.1 480.1,213.6 482.4,215.7 484.6,213.5 486.9,165.3 489.1,165.5 491.3,169.8 493.6,172.7 495.8,219.3 498.1,221.8 500.3,224.9 502.6,228.0 504.8,183.9 507.1,179.8 509.3,178.4 511.5,180.1 513.8,225.9 516.0,225.9 518.3,225.9 520.5,226.0 522.8,181.9 525.0,185.7 527.3,188.6 529.5,190.9 531.7,236.0 534.0,236.0 536.2,233.2 538.5,229.9 540.7,183.0 543.0,180.3 545.2,181.8 547.4,181.5 549.7,228.5 551.9,231.0 554.2,229.8 556.4,231.6 558.7,186.2 560.9,186.3 563.2,188.5 565.4,185.9 567.6,226.9 569.9,225.2 572.1,223.4 574.4,225.4 576.6,179.2 578.9,177.0 581.1,178.3 583.4,182.3 585.6,227.7 587.8,225.9 590.1,223.7 592.3,226.0 594.6,182.8 596.8,186.7 599.1,186.3 601.3,186.7 603.5,229.3 605.8,231.5 608.0,232.7 610.3,233.9 612.5,188.8 614.8,191.6 617.0,191.6 619.3,190.5 621.5,233.3 623.7,233.1 626.0,234.1 628.2,235.2 630.5,198.0 632.7,195.3 635.0,196.8 637.2,193.0 639.5,236.2 641.7,236.5 643.9,238.8 646.2,236.5 648.4,193.7 650.7,193.8 652.9,195.4 655.2,192.8 657.4,233.8 659.6,230.8 661.9,227.5 664.1,224.3 666.4,184.0 668.6,180.4 670.9,180.3 673.1,184.2 675.4,229.1 677.6,230.4 679.8,231.6 682.1,233.7 684.3,190.2 686.6,190.0 688.8,193.1 691.1,190.5 693.3,233.9 695.6,233.9 697.8,236.1 700.0,238.1 702.3,194.9 704.5,197.2 706.8,193.3 709.0,191.7 711.3,230.6 713.5,230.7 715.8,234.0 718.0,234.2 720.2,195.2 722.5,197.2 724.7,194.3 727.0,193.0 729.2,231.2 731.5,231.2 733.7,229.3 735.9,229.4 738.2,192.0 740.4,194.3 742.7,190.7 744.9,189.2 747.2,231.1 749.4,229.8 751.7,229.8 753.9,231.1 756.1,186.7 758.4,186.5 760.6,189.6 762.9,188.2 765.1,229.1 767.4,230.1 769.6,232.7 771.9,232.5 774.1,193.7 776.3,191.1 778.6,193.3 780.8,195.3 783.1,232.9 785.3,234.3 787.6,234.4 789.8,237.6 792.0,195.1 794.3,195.5 796.5,198.0 798.8,195.8 801.0,232.5 803.3,229.4 805.5,231.3 807.8,228.8 810.0,191.3" fill="none" stroke="#ffb14f" stroke-width="1.6" opacity="0.9"/>
<line x1="826" y1="52" x2="844" y2="52" stroke="#ffb14f" stroke-width="3"/>
<text x="848" y="56" fill="#cfe0f5">tar (valuable, R3.0)</text>
<polyline points="56.0,206.7 58.2,154.7 60.5,89.8 62.7,154.7 65.0,304.0 67.2,290.9 69.5,290.9 71.7,290.9 74.0,161.2 76.2,131.3 78.4,188.0 80.7,211.9 82.9,285.6 85.2,253.3 87.4,234.2 89.7,270.3 91.9,165.1 94.1,135.7 96.4,135.7 98.6,135.7 100.9,249.3 103.1,249.3 105.4,266.8 107.6,229.7 109.9,167.0 112.1,137.8 114.3,68.8 116.6,68.8 118.8,204.9 121.1,204.9 123.3,180.1 125.6,204.9 127.8,138.8 130.1,167.9 132.3,217.3 134.5,167.9 136.8,225.4 139.0,245.4 141.3,245.4 143.5,225.4 145.8,168.5 148.0,139.5 150.3,217.8 152.5,168.5 154.7,278.4 157.0,262.2 159.2,244.2 161.5,262.2 163.7,194.0 166.0,238.2 168.2,194.0 170.4,217.3 172.7,244.7 174.9,202.2 177.2,177.1 179.4,202.2 181.7,138.9 183.9,70.1 186.2,106.5 188.4,138.9 190.6,201.8 192.9,224.2 195.1,224.2 197.4,224.2 199.6,167.3 201.9,216.7 204.1,193.4 206.4,237.7 208.6,262.5 210.8,224.4 213.1,244.5 215.3,278.6 217.6,192.8 219.8,192.8 222.1,192.8 224.3,137.3 226.5,176.9 228.8,224.4 231.0,224.4 233.3,202.0 235.5,102.5 237.8,24.7 240.0,65.7 242.3,24.0 244.5,179.2 246.7,179.2 249.0,204.0 251.2,204.0 253.5,24.0 255.7,63.7 258.0,63.7 260.2,100.7 262.5,247.3 264.7,265.0 266.9,227.5 269.2,247.3 271.4,133.4 273.7,189.6 275.9,213.4 278.2,189.6 280.4,281.9 282.6,248.6 284.9,182.5 287.1,207.0 289.4,24.0 291.6,62.5 293.9,162.6 296.1,189.2 298.4,282.3 300.6,266.6 302.8,266.6 305.1,229.5 307.3,212.7 309.6,188.8 311.8,132.4 314.1,99.1 316.3,183.7 318.6,229.9 320.8,249.4 323.0,249.4 325.3,98.8 327.5,61.6 329.8,61.6 332.0,61.6 334.3,207.7 336.5,229.5 338.8,183.2 341.0,155.9 343.2,24.0 345.5,24.0 347.7,24.0 350.0,98.4 352.2,183.3 354.5,183.3 356.7,207.7 358.9,229.6 361.2,98.3 363.4,98.3 365.7,98.3 367.9,61.1 370.2,156.5 372.4,183.7 374.7,156.5 376.9,156.5 379.1,98.7 381.4,132.0 383.6,61.5 385.9,24.0 388.1,184.1 390.4,230.2 392.6,156.9 394.9,156.9 397.1,61.2 399.3,131.8 401.6,188.3 403.8,131.8 406.1,183.2 408.3,229.5 410.6,266.6 412.8,266.6 415.0,129.8 417.3,186.8 419.5,186.8 421.8,186.8 424.0,249.6 426.3,282.7 428.5,267.0 430.8,249.6 433.0,128.7 435.2,128.7 437.5,185.9 439.7,185.9 442.0,297.4 444.2,267.9 446.5,283.4 448.7,267.9 451.0,209.9 453.2,158.7 455.4,209.9 457.7,209.9 459.9,283.8 462.2,251.0 464.4,268.3 466.7,268.3 468.9,93.6 471.1,127.4 473.4,184.8 475.6,157.7 477.9,252.0 480.1,284.6 482.4,252.0 484.6,269.2 486.9,92.6 489.1,126.6 491.3,24.0 493.6,54.7 495.8,212.5 498.1,161.9 500.3,161.9 502.6,188.6 504.8,53.6 507.1,53.6 509.3,24.0 511.5,24.0 513.8,162.2 516.0,212.7 518.3,253.2 520.5,253.2 522.8,154.8 525.0,182.2 527.3,206.8 529.5,206.8 531.7,286.3 534.0,254.1 536.2,254.1 538.5,254.1 540.7,88.3 543.0,49.9 545.2,49.9 547.4,49.9 549.7,191.3 551.9,191.3 554.2,164.9 556.4,164.9 558.7,48.2 560.9,121.4 563.2,180.0 565.4,180.0 567.6,256.0 569.9,237.2 572.1,192.8 574.4,216.2 576.6,48.8 578.9,48.8 581.1,87.3 583.4,24.0 585.6,216.1 587.8,255.9 590.1,237.1 592.3,237.1 594.6,151.6 596.8,179.3 599.1,120.5 601.3,85.9 603.5,256.7 605.8,217.1 608.0,256.7 610.3,238.0 612.5,119.9 614.8,178.8 617.0,178.8 619.3,178.8 621.5,257.2 623.7,273.9 626.0,238.6 628.2,257.2 630.5,203.4 632.7,150.6 635.0,84.6 637.2,45.8 639.5,194.7 641.7,168.8 643.9,218.0 646.2,218.0 648.4,24.0 650.7,24.0 652.9,83.0 655.2,118.0 657.4,240.1 659.6,196.4 661.9,141.9 664.1,170.7 666.4,82.7 668.6,149.0 670.9,149.0 673.1,149.0 675.4,258.3 677.6,258.3 679.8,289.7 682.1,274.8 684.3,148.0 686.6,116.6 688.8,81.4 691.1,116.6 693.3,220.6 695.6,241.1 697.8,241.1 700.0,241.1 702.3,80.4 704.5,41.0 706.8,24.0 709.0,80.4 711.3,242.0 713.5,242.0 715.8,221.6 718.0,173.4 720.2,24.0 722.5,40.3 724.7,40.3 727.0,146.6 729.2,242.3 731.5,173.7 733.7,173.7 735.9,221.9 738.2,24.0 740.4,24.0 742.7,24.0 744.9,38.3 747.2,243.5 749.4,200.6 751.7,223.2 753.9,175.3 756.1,39.1 758.4,39.1 760.6,78.6 762.9,24.0 765.1,242.9 767.4,261.1 769.6,261.1 771.9,291.9 774.1,198.3 776.3,144.2 778.6,76.7 780.8,76.7 783.1,223.7 785.3,243.9 787.6,201.2 789.8,223.7 792.0,24.0 794.3,24.0 796.5,24.0 798.8,36.1 801.0,201.9 803.3,224.4 805.5,224.4 807.8,201.9 810.0,24.0" fill="none" stroke="#ff5d6c" stroke-width="1.6" opacity="0.9"/>
<line x1="826" y1="74" x2="844" y2="74" stroke="#ff5d6c" stroke-width="3"/>
<text x="848" y="78" fill="#cfe0f5">antler trophy (valuable R3.0, rare)</text>
<text x="56" y="16" fill="#cfe0f5" font-size="14">Sell price ÷ base over 14 days — commodities vs valuables</text>
</svg>